<svg version="1.0" xmlns="http://www.w3.org/2000/svg"
 width="90.000000pt" height="90.000000pt" viewBox="0 0 90.000000 90.000000"
 preserveAspectRatio="xMidYMid meet">
<metadata>
Andreas Bigger
</metadata>
<g transform="translate(0.000000,90.000000) scale(0.100000,-0.100000)"
fill="white" stroke="none">
<path d="M312 839 c-69 -34 -104 -71 -138 -144 -22 -46 -24 -63 -24 -218 0
-140 2 -169 15 -173 8 -4 15 -14 15 -24 0 -10 15 -36 32 -58 18 -22 45 -58 61
-80 76 -111 278 -111 354 0 16 22 43 58 61 80 17 22 32 48 32 58 0 10 7 20 15
24 13 4 15 33 15 174 0 168 0 169 -31 230 -53 108 -143 162 -270 162 -65 0
-85 -4 -137 -31z m293 -473 c48 -11 50 -13 48 -44 0 -19 -10 -43 -23 -55 -12
-12 -31 -38 -44 -57 -68 -107 -204 -107 -272 0 -13 19 -32 45 -44 57 -13 12
-23 36 -23 55 -2 31 0 33 48 44 28 7 97 12 155 12 58 0 128 -5 155 -12z"/>
</g>
</svg>
